<svg width="647" height="394" viewBox="0 0 647 394" fill="none" xmlns="http://www.w3.org/2000/svg">
<path d="M502.99 99.21C501.47 100.97 498.69 101.84 495.43 101.08C492.37 100.37 490.54 98.2 490.06 94.71C488.52 83.55 485.11 73.01 479.68 63.14C475.11 54.83 469.43 47.38 462.49 40.91C444.88 24.48 424.05 16.02 399.95 15.81C395.98 15.78 391.99 16.08 388.04 16.56C381.04 17.41 378.02 10.61 379.98 5.99001C381.12 3.30001 383.24 1.97001 386.08 1.61001C392.46 0.790008 398.85 0.520014 405.27 0.850014C420.98 1.65001 435.87 5.60001 449.64 13.17C477.94 28.73 495.93 52.27 503.34 83.77C504.03 86.7 504.45 89.7 504.94 92.68C505.29 94.74 505.01 96.69 502.99 99.21Z" fill="#F8262D"/>
<path d="M445.44 49.43C459.99 61.02 469.43 76.96 472.37 96.68C472.82 99.67 472.22 102.32 469.62 104.13C466.97 105.97 464.08 106.19 461.17 104.74C458.82 103.56 457.93 101.41 457.46 98.96C456.87 95.88 456.34 92.76 455.43 89.77C452.26 79.32 446.55 70.43 438.29 63.26C425.18 51.88 409.96 47.18 392.72 49.07C389.74 49.4 387.07 48.92 385.26 46.31C383.48 43.75 383.19 40.95 384.52 38.09C385.7 35.56 387.89 34.49 390.53 34.16C400.33 32.93 410 33.6 419.52 36.25C428.62 38.78 436.89 42.98 445.44 49.43Z" fill="#F8262D"/>
<path d="M423.79 74.24C433.04 81.63 438.3 90.41 439.84 101.34C440.33 104.79 439.1 107.34 436.33 108.88C433.41 110.51 429.91 110.24 427.39 108.16C425.88 106.92 425.24 105.23 424.96 103.35C424.25 98.52 422.42 94.15 419.19 90.47C413.28 83.74 405.84 80.75 396.91 81.62C394.61 81.84 392.45 81.65 390.68 80.01C388.31 77.82 387.61 75.08 388.37 72C389.11 69 391.18 67.27 394.18 66.83C402.91 65.55 411.18 67.06 418.94 71.25C420.84 72.29 422.64 73.53 423.79 74.24Z" fill="#F8262D"/>
<path d="M640.07 307.7C632.51 307.68 624.93 307.68 617.72 307.68C620.74 303.12 624.2 298.79 626.68 293.97C633.5 280.79 636.57 266.51 637.32 251.81C637.78 242.98 637.45 234.15 636.09 225.33C634.23 213.42 630.96 202.06 624.9 191.6C621.31 185.39 616.77 179.98 610.94 175.7C604.94 171.29 598.18 170.25 590.83 170.31C557.54 170.5 408.41 170.39 375.12 170.39C373.52 170.39 371.89 170.62 370.37 170.33C369.1 170.08 367.29 169.46 366.95 168.54C366.53 167.42 366.99 165.48 367.79 164.49C372.5 158.74 377.38 153.13 382.26 147.53C389.7 138.93 397.21 130.36 404.63 121.76C407.18 118.8 408.69 115.23 408.49 111.39C408.03 102.94 401.8 96.46 393.01 96.5C387.6 96.52 382.2 96.42 376.79 96.54C374.85 96.58 372.92 96.98 370.98 97.3C365.91 98.17 362.02 101.31 358.03 104.25C341.92 116.08 325.8 127.9 309.69 139.73C296.95 149.09 284.2 158.44 271.5 167.88C269.05 169.7 266.51 170.46 263.41 170.44C244.19 170.33 224.97 170.38 205.75 170.38C169.76 170.38 91.99 170.42 56 170.36C48.56 170.34 42.42 173.38 37.03 178.07C28.46 185.51 23.26 195.18 19.6 205.72C16.26 215.35 14.13 225.23 13.9 235.42C13.73 242.62 13.27 249.87 14.07 256.98C14.92 264.73 16.67 272.42 18.72 279.96C21.51 290.25 26.39 299.58 33.84 307.67C24.51 307.67 15.4 307.65 6.28 307.69C2.67 307.71 0.219996 309.78 0.0299957 312.82C-0.160004 316.09 1.65999 318.14 5.55999 318.52C8.06999 318.75 10.63 318.44 13.16 318.44H51.52C52.56 318.44 53.59 318.57 54.62 318.59C59.14 318.67 105.44 318.68 109.96 318.82C111.63 318.88 113.42 318.88 114.94 319.45C127.99 324.22 140.98 329.14 154.01 333.98C171.96 340.65 189.91 347.31 207.89 353.87C211.69 355.26 215.3 357.1 219.63 357.04C238.85 356.83 258.07 356.91 277.29 356.85C278.39 356.85 279.53 356.74 280.58 356.45C282.94 355.8 284.42 353.37 284.19 350.77C283.96 348.49 282.1 346.38 279.76 346.33C271.44 346.16 263.1 346.12 254.77 346.05C252.83 346.03 250.91 346.05 248.9 346.05C249.98 339.04 247.38 334.22 241.72 331.08C237.18 328.57 232.47 326.39 227.84 324.03C224.4 322.26 220.96 320.48 217.01 318.45H227.3C274.78 318.45 322.26 318.41 369.74 318.47C401.12 318.51 548.34 318.74 579.72 318.81C586.06 318.81 592.41 318.45 598.75 318.43C610.68 318.37 622.59 318.43 634.51 318.45C636.73 318.45 638.95 318.49 641.18 318.36C644.2 318.17 646.04 316.12 646.02 313.12C645.96 309.92 643.59 307.7 640.07 307.7ZM274.59 307.76L230.91 307.82H230.76C230.63 307.84 230.48 307.84 230.32 307.84H220.79V308.16C216.59 308.16 212.4 308.06 208.18 308.2C204.5 308.31 201.38 310.92 200.6 314.24C199.63 318.4 201.06 322.24 204.66 324.14C211.86 327.92 219.13 331.53 226.37 335.23C229.73 336.94 233.17 338.55 236.42 340.45C237.39 341.04 238.66 342.79 238.4 343.45C237.94 344.61 236.42 346.11 235.32 346.13C226.58 346.34 217.79 347.21 209.43 343.21C204.34 340.8 198.89 339.07 193.55 337.21L181.09 332.54C181.07 332.56 181.05 332.6 181.03 332.62C164.34 326.43 147.64 320.26 130.49 313.89C130.57 313.83 130.64 313.76 130.72 313.7L123.94 311.17C123.69 311.19 123.47 311.17 123.26 311.11C119.54 310.16 115.93 308.55 112.15 308.03C111.64 307.95 110.06 307.9 107.69 307.86H107.35C102.77 307.78 95.46 307.75 87.12 307.75C84.48 307.75 81.75 307.75 78.95 307.73H77.54C56.65 307.75 60.26 307.88 58 307.92H57.54C52.15 307.92 47.59 305.94 43.58 302.3C38.43 297.63 34.96 292.03 32.28 285.97C25.59 272.07 21.93 252.14 25.27 227.85C25.57 226.24 25.78 224.68 26.01 223.2C26.09 222.71 26.16 222.23 26.26 221.76C26.26 221.72 26.26 221.7 26.28 221.68C29.62 203.68 35.81 193.57 41.85 187.89L41.91 187.83C42 187.7 42.12 187.56 42.23 187.45C42.59 187.07 42.97 186.75 43.39 186.54C46.41 184.05 49.33 182.61 51.77 181.79V181.51C52.42 181.43 53.06 181.32 53.71 181.23C55.23 180.98 56.73 180.72 58.25 180.72L69.63 180.74L184.7 180.78C189.39 180.78 194.08 180.8 198.75 180.78C220.27 180.78 241.81 180.69 263.32 180.82C267.76 180.86 271.77 180.33 275.51 178.1L293.8 164.58L300.18 159.85L300.26 159.79C304.89 156.35 309.55 152.93 314.2 149.52C320.56 144.85 326.98 140.23 333.34 135.56C342.89 128.55 352.41 121.49 361.96 114.48C364.51 112.62 367.07 110.8 369.73 109.09C371.12 108.22 372.62 107.68 374.38 107.44C374.42 107.42 374.47 107.42 374.53 107.42C375.54 107.27 376.62 107.23 377.83 107.27C377.81 107.31 377.79 107.35 377.75 107.38L384.78 107.29C384.89 107.27 385.01 107.25 385.12 107.25C387.15 107.16 389.17 107.21 391.2 107.21L392.99 107.19C395.19 107.13 396.54 108.33 397.47 110.11C398.36 111.84 397.66 113.38 396.56 114.71C394.66 117.03 392.67 119.25 390.71 121.53C385.43 127.65 380.15 133.76 374.89 139.88C369.38 146.3 363.74 152.62 358.4 159.2C354.66 163.8 355.04 171.89 359.44 176.52C363.77 181.1 369.2 180.89 374.6 180.91C387.53 180.95 516.34 180.68 529.27 180.64C541.98 180.6 554.68 180.7 567.39 180.75C568.53 180.75 569.67 180.98 570.81 181.09C570.85 181.37 570.9 181.66 570.94 181.93C570.62 182.03 570.29 182.12 569.97 182.23C560.07 195.89 554.8 210.03 552.42 223.54C552.42 223.62 552.4 223.69 552.38 223.77C551.94 226.43 551.6 229.13 551.32 231.84H551.3C551.11 233.99 550.98 236.09 550.9 238.18V246.06C551.79 273.37 562.05 294.4 563.38 297.02C563.48 297.21 563.53 297.3 563.53 297.3C565.52 300.83 568.13 304.04 570.75 307.78H274.59V307.76ZM604.35 304.7C597.23 309.54 589.46 308.92 583.02 304.09C573.85 297.21 569.35 287.34 566 276.87C562.43 265.76 560.95 254.25 561.18 242.61C561.48 227.74 564.12 213.32 570.79 199.92C574.06 193.37 578.27 187.42 584.73 183.49C591.62 179.27 599.51 180 605.85 185.1C613.14 190.95 617.25 198.85 620.55 207.3C623.76 215.58 625.62 224.15 626.27 233C626.55 236.86 626.74 240.73 626.97 244.59C626.99 258.49 624.73 271.9 619.2 284.68C615.84 292.49 611.62 299.74 604.35 304.7Z" fill="#F8262D"/>
<path d="M425.03 355.21C421.09 356.73 418.82 359.58 416.83 362.78C414.48 366.56 408.34 366.57 406.08 362.77C405.25 361.37 404.67 359.79 404.12 358.25C402.24 352.95 401.9 347.49 402.92 341.86C392.65 346.7 384.89 356.57 388.45 373.19C387.62 373.19 386.86 373.19 386.09 373.19C369.88 373.19 353.67 373.19 337.47 373.19C335.13 373.19 333.1 372.68 331.93 370.36C329.96 366.46 332.37 362.54 336.84 362.53C349.23 362.51 361.63 362.52 374.02 362.52C374.88 362.52 375.74 362.52 376.01 362.52C377.64 357.77 378.76 353.18 380.73 349C385.99 337.87 395.49 331.94 406.99 328.81C409.64 328.09 412.24 328.13 414.36 330.42C416.4 332.61 416.92 335.01 415.53 337.76C413.58 341.63 413.05 345.75 412.94 350.43C416.72 346.8 420.9 344.73 425.57 343.75C427.44 343.36 429.54 342.95 431.31 343.41C435.39 344.47 436.69 347.45 436.19 351.58C435.84 354.49 436.24 357.5 436.42 360.45C436.52 362.04 437.44 362.58 439.14 362.56C448.51 362.46 457.89 362.6 467.26 362.47C471.11 362.41 473.23 364.81 473.22 367.75C473.21 371.17 470.82 373.23 467.19 373.21C455.99 373.15 444.78 373.15 433.58 373.23C431.75 373.24 430.67 372.55 429.71 371.11C426.57 366.37 425.01 361.18 425.03 355.21Z" fill="#F8262D"/>
<path d="M98.29 350.54C103.04 345.82 108.47 344.01 114.3 343.04C118.57 342.33 122.2 346.85 121.56 351.51C121.15 354.48 121.67 357.57 121.83 360.61C121.91 362.26 122.96 362.54 124.44 362.53C134.05 362.48 143.67 362.5 153.28 362.5C156.8 362.5 159.22 364.67 159.24 367.81C159.26 370.9 156.77 373.16 153.29 373.16C141.69 373.17 130.09 373.13 118.49 373.21C117.03 373.22 116.16 372.72 115.4 371.6C112.34 367.08 110.39 362.21 110.44 356.66C110.44 356.21 110.35 355.75 110.28 355.05C106.8 356.69 104.29 359.04 102.53 362.19C101.14 364.66 99.03 365.71 96.27 365.53C93.75 365.37 91.97 364.09 90.95 361.81C88.42 356.21 86.83 350.46 88.01 344.23C88.15 343.48 88.03 342.67 88.03 341.9C79.48 345.23 72.68 355.15 72.94 363.97C72.98 365.32 73 366.67 72.97 368.02C72.91 370.8 70.6 373.08 67.82 373.16C65.04 373.24 62.56 371.07 62.31 368.33C60.88 352.63 69.03 338.68 83.73 332.05C87 330.58 90.52 329.64 93.96 328.57C96.68 327.72 98.71 329.12 100.33 331.07C101.93 332.99 102.13 335.27 101.03 337.5C99.07 341.45 98.13 345.57 98.29 350.54Z" fill="#F8262D"/>
<path d="M333.18 337.9C324.05 337.9 314.91 337.9 305.78 337.9C302.55 337.9 300.15 335.57 300.18 332.52C300.21 329.59 302.58 327.25 305.72 327.25C324.07 327.23 342.41 327.23 360.76 327.25C364 327.25 366.15 329.43 366.15 332.56C366.15 335.79 363.97 337.9 360.58 337.91C351.45 337.91 342.32 337.9 333.18 337.9Z" fill="#F8262D"/>
<path d="M219.08 393.2C210.03 393.2 200.98 393.2 191.94 393.2C188.5 393.2 186.28 391.14 186.25 387.98C186.22 384.88 188.52 382.56 191.79 382.55C210.05 382.52 228.3 382.53 246.56 382.55C249.77 382.55 252.26 384.99 252.21 387.96C252.16 390.98 249.73 393.21 246.46 393.21C237.33 393.2 228.21 393.2 219.08 393.2Z" fill="#F8262D"/>
<path d="M277.42 382.38C278.84 382.38 280.26 382.38 281.68 382.38C284.88 382.39 287.38 384.52 287.48 387.32C287.6 390.39 285.2 393.03 281.94 393.17C278.86 393.3 275.76 393.3 272.68 393.17C269.23 393.02 267.12 390.62 267.28 387.31C267.44 384.06 269.53 382.3 273.15 382.36C274.57 382.38 275.99 382.36 277.41 382.36C277.42 382.37 277.42 382.37 277.42 382.38Z" fill="#F8262D"/>
<path d="M495.84 362.51C497.43 362.51 499.02 362.49 500.6 362.51C503.48 362.55 505.74 364.72 505.82 367.49C505.91 370.53 503.94 373 501.01 373.13C497.52 373.29 494.02 373.29 490.53 373.13C487.61 373 485.49 370.42 485.62 367.54C485.75 364.65 488.04 362.53 491.07 362.51C492.67 362.5 494.26 362.51 495.84 362.51Z" fill="#F8262D"/>
<path d="M622.64 237.62C621.86 227.55 619.96 217.7 616.89 208.07C614.61 200.89 611.71 194 605.93 188.77C600.55 183.91 593.22 184.14 587.68 187.5C581.77 191.09 578.32 196.83 576.23 203.24C574.35 209.05 572.53 214.92 571.35 220.9C569.49 230.21 567.74 239.57 566.83 249.01C566.11 256.68 566.39 264.49 568.1 272.14C569.92 280.38 572.66 288.13 578.68 294.4C584.47 300.42 594.29 303.35 602.5 299.3C608.79 296.2 612.26 290.81 615.13 284.81C620.85 272.88 623.37 260.27 623.33 247.07C623.1 243.92 622.89 240.77 622.64 237.62ZM618.12 249.3C617.82 262.46 614.99 275.07 608.41 286.62C605.71 291.33 601.99 295.01 596.2 295.83C589.99 296.7 584.94 294.31 581.18 289.66C576 283.28 573.53 275.64 572.58 267.53C572.12 263.52 571.73 259.52 571.31 255.53C571.69 243.68 573.76 232.13 576.65 220.76C578.34 214.09 580.32 207.43 582.84 201.03C584.99 195.6 588.78 191.53 595.11 190.38C598.87 189.7 603.05 192.58 605.27 195.58C610.17 202.19 612.37 209.92 614.25 217.71C616.75 228.06 618.37 238.61 618.12 249.3Z" fill="#F8262D"/>
<path d="M613.9 240.39C613.39 234.08 612.1 227.78 610.58 221.63C608.91 214.85 606.91 208.09 603.17 202.05C601.18 198.8 598.16 197.55 594.47 198.08C591.26 198.55 588.81 200.42 587.77 203.45C584.77 212.19 581.64 220.92 579.22 229.83C576.96 238.26 575.31 246.89 575.36 255.77C575.8 260.01 575.99 264.28 576.75 268.46C578 275.35 580.38 281.81 585.54 286.9C591.16 292.43 598.8 291.61 603.07 284.96C606.6 279.45 609.53 273.68 611.45 267.35C614.13 258.51 614.61 249.45 613.9 240.39ZM599.16 281.51C595.49 287.07 591.03 286.18 587.61 281.53C583.55 276 581.82 269.68 581.1 262.88C579.73 250.16 582.24 237.92 585.62 225.84C587.5 219.14 589.99 212.6 592.27 205.99C592.84 204.32 594.11 202.84 595.88 203.14C597.11 203.35 598.54 204.56 599.18 205.7C602.62 211.68 604.71 218.22 606.02 224.94C607.44 232.35 608.51 239.83 609.15 243.86C609 259.69 606 271.14 599.16 281.51Z" fill="#F8262D"/>
<path d="M602.05 228.6C601.63 225.45 600.68 222.35 599.85 219.26C599.3 217.21 597.76 215.9 595.69 215.96C593.53 216.04 592.18 217.56 591.57 219.63C590.89 221.97 589.99 224.26 589.61 226.64C588.51 233.21 587.5 239.8 586.7 246.41C585.64 255.01 585.98 263.6 587.63 272.11C588.18 274.96 590.92 277.62 593.21 277.83C595.3 278 597.81 275.82 598.77 272.74C601.73 263.3 603.21 253.63 603.39 243.7C602.98 238.64 602.72 233.59 602.05 228.6ZM593.56 272.18C589.65 266.05 591.57 230.72 595.99 224.6C599.56 240.71 598.48 256.31 593.56 272.18Z" fill="#F8262D"/>
<path d="M26.01 223.18C25.78 224.66 25.57 226.22 25.27 227.83C25.48 226.22 25.73 224.68 26.01 223.18Z" fill="#F8262D"/>
<path d="M58.24 180.7C56.72 180.7 55.22 180.97 53.7 181.21C56.46 180.56 58.24 180.7 58.24 180.7Z" fill="#F8262D"/>
<path d="M107.34 307.85C102.23 307.81 95.07 307.77 87.11 307.74C95.45 307.74 102.76 307.78 107.34 307.85Z" fill="#F8262D"/>
<path d="M374.54 107.39C374.48 107.39 374.43 107.39 374.39 107.41L374.41 107.39H374.54Z" fill="black"/>
<path d="M193.37 280.42H189.53V277.92C193.21 277.92 196.3 277.92 200 277.92V280.42H196.16V290.53H193.37V280.42V280.42Z" fill="#B76853"/>
<path d="M214.94 288.37H208.47L207.55 290.53H204.52L210.18 277.92H213.24L218.9 290.53H215.85L214.94 288.37ZM211.71 280.77L209.53 285.89H213.87L211.71 280.77Z" fill="#B76853"/>
<path d="M228.45 286.96V290.53H225.64V277.92C227.66 277.92 229.59 277.92 231.59 277.92C234.82 277.92 236.42 280.01 236.42 282.44C236.42 284.96 234.8 286.93 231.59 286.96H228.45V286.96ZM228.45 284.39H231.59C232.94 284.39 233.61 283.51 233.61 282.5C233.61 281.49 232.93 280.59 231.59 280.59H228.45V284.39Z" fill="#B76853"/>
<path d="M256.99 285.38C256.99 287.33 254.03 287.33 254.03 285.38C254.03 283.43 256.99 283.43 256.99 285.38Z" fill="#B76853"/>
<path d="M277.36 277.92V287.96H283.67V290.54H274.55V277.93H277.36V277.92Z" fill="#B76853"/>
<path d="M296.66 290.84C292.62 290.84 289.85 288.34 289.85 284.23C289.85 280.12 292.62 277.62 296.66 277.62C300.7 277.62 303.47 280.12 303.47 284.23C303.47 288.33 300.7 290.84 296.66 290.84ZM296.66 280.14C294.26 280.14 292.61 281.94 292.61 284.23C292.61 286.59 294.27 288.3 296.66 288.3C299.11 288.3 300.71 286.57 300.71 284.23C300.71 281.92 299.11 280.14 296.66 280.14Z" fill="#B76853"/>
<path d="M319.92 281.23C319.15 280.49 317.97 280.11 316.97 280.11C314.57 280.11 313.01 281.48 313.01 284.24C313.01 286.04 314 288.29 316.97 288.29C317.85 288.29 318.68 288.15 319.65 287.41V285.39H316.64V283.05H322.08V288.55C321 290.1 319.27 290.89 316.94 290.89C312.07 290.89 310.24 287.52 310.24 284.24C310.24 280.69 312.33 277.54 316.96 277.54C318.67 277.54 320.22 278.01 321.66 279.49L319.92 281.23Z" fill="#B76853"/>
<path d="M341.88 285.38C341.88 288.95 336.46 288.95 336.46 285.38C336.45 281.81 341.88 281.81 341.88 285.38Z" fill="#B76853"/>
<path d="M258.56 285.38C258.56 288.95 253.14 288.95 253.14 285.38C253.14 281.81 258.56 281.81 258.56 285.38Z" fill="#B76853"/>
<path d="M360.55 277.92C364.89 277.92 366.82 280.84 366.82 284.14C366.82 287.44 364.96 290.54 360.55 290.54C358.96 290.54 356.96 290.54 355.38 290.54V277.93H360.55V277.92ZM358.15 287.94H360.55C363.29 287.94 364.05 285.92 364.05 284.1C364.05 282.28 363.19 280.46 360.55 280.46H358.15V287.94Z" fill="#B76853"/>
<path d="M380.44 290.84C376.4 290.84 373.63 288.34 373.63 284.23C373.63 280.12 376.4 277.62 380.44 277.62C384.48 277.62 387.25 280.12 387.25 284.23C387.25 288.33 384.48 290.84 380.44 290.84ZM380.44 280.14C378.04 280.14 376.39 281.94 376.39 284.23C376.39 286.59 378.05 288.3 380.44 288.3C382.89 288.3 384.49 286.57 384.49 284.23C384.49 281.92 382.89 280.14 380.44 280.14Z" fill="#B76853"/>
<path d="M403.52 286.12L403.34 282.16V277.93H406.17V290.54H403.76L397.49 282.47L397.6 286.61V290.54H394.75V277.93H397.16L403.52 286.12Z" fill="#B76853"/>
<path d="M423.99 290.53H414.39C414.39 286.33 414.39 282.12 414.39 277.92H423.74V280.5H417.15V282.93H423.37V285.4H417.15V287.94H424V290.53H423.99Z" fill="#B76853"/>
<path d="M191.86 218.31L192.52 224.74C195.93 218.51 201.23 217.22 206.25 217.22C210.8 217.22 215.15 218.9 217.8 221.38L213.35 230.28C210.98 228.3 208.71 227.31 205.11 227.31C198.39 227.31 192.51 231.66 192.51 240.67V267.09H182.75V218.31H191.86V218.31Z" fill="#F8262D"/>
<path d="M237.5 203.68C237.5 212.09 224.83 212.09 224.83 203.68C224.82 195.37 237.5 195.37 237.5 203.68ZM226.67 218.31V267.09H236.43V218.31H226.67V218.31Z" fill="#F8262D"/>
<path d="M283.25 267.09V238.74C283.25 232.49 278.36 227.17 272.1 227C264.59 226.8 259.83 232.92 259.83 240.26V267.09H250.07V218.31H259.63L260.33 224.83C263.12 219.5 268.89 217.52 274.07 217.52C280.34 217.52 286.72 220.09 289.5 227.29C293.48 220.08 299.66 217.61 306.33 217.61C319.87 217.61 327.14 226.1 327.14 240.12V267.08H316.41V238.3C316.41 231.68 310.65 226.31 304.09 227.2C297.88 228.04 293.97 233.6 293.97 240.26V267.09H283.25Z" fill="#F8262D"/>
<path d="M352.51 197.82V256.35H388.6V267.08H341.77V197.82H352.51V197.82Z" fill="#B76853"/>
<path d="M444.41 242.49C444.41 256.94 434.41 267.83 419.07 267.83C403.82 267.83 393.92 256.94 393.92 242.49C393.92 228.14 403.92 217.05 419.07 217.05C434.11 217.05 444.41 228.14 444.41 242.49ZM404.11 242.49C404.11 251.2 409.75 258.33 419.06 258.33C428.47 258.33 434.11 251.2 434.11 242.49C434.11 233.88 427.97 226.45 419.06 226.45C409.76 226.45 404.11 233.88 404.11 242.49Z" fill="#B76853"/>
<path d="M497.17 213.03L504.59 218.77L498.75 225.6C502.81 230.35 504.69 234.71 504.69 240.75C504.69 249.36 500.43 256.39 491.72 259.76C501.72 263.13 504.59 269.86 504.59 275.7C504.59 288.97 491.52 295.6 478.45 295.6C462.51 295.6 452.31 287.48 452.71 273.92H462.91C462.61 281.54 470.33 285.6 478.45 285.7C485.97 285.7 493.99 282.63 493.99 275.7C493.99 268.87 487.75 265.11 478.65 265.11C462.81 265.11 452.22 256 452.22 240.76C452.22 224.43 465.39 216.21 478.65 216.21C482.71 216.21 488.35 217.2 491.82 219.58L497.17 213.03ZM462.52 241.1C462.52 250.8 469.85 256.05 478.66 256.05C487.67 256.05 494.5 249.91 494.5 241.1C494.5 231.5 487.08 226.05 478.66 226.05C470.34 226.06 462.52 230.91 462.52 241.1Z" fill="#B76853"/>
<path d="M166.31 254.28C165.56 253.42 165.18 253.4 165.15 253.4C164.95 253.44 164.03 253.94 163.6 254.17C159.07 257.38 154.07 259 148.73 259C141.91 259 135.61 256.42 130.02 251.32C124.38 246.17 121.51 239.63 121.51 231.87C121.51 224.58 124.2 218.23 129.51 213.03C134.93 207.72 141.15 205.15 148.54 205.15C154.12 205.15 159.1 206.69 163.35 209.71C164.65 210.63 165.11 210.65 165.16 210.65C165.54 210.65 165.93 210.42 166.34 209.94L170.45 204.57C170.97 203.83 171.06 203.59 171.08 203.52C171.07 203.21 170.68 202.53 169.54 201.74C163.91 197.46 156.87 195.29 148.55 195.29C138.18 195.29 129.61 198.82 122.36 206.08C115.2 213.14 111.57 221.88 111.57 232.07C111.57 242.38 115.1 250.91 122.36 258.17C129.62 265.43 138.18 268.95 148.55 268.95C156.83 268.95 164.21 266.5 170.49 261.64C171 261.22 171.07 260.92 171.07 260.69C171.07 260.61 170.97 260.19 170.53 259.56L166.31 254.28Z" fill="#F8262D"/>
</svg>
